<svg width="54" height="43" viewBox="0 0 54 43" fill="none" xmlns="http://www.w3.org/2000/svg">
<path fill-rule="evenodd" clip-rule="evenodd" d="M54 27.8593C54 28.957 53.1472 29.4486 51.6295 29.4486H48.7374V28.3891H51.6295C51.9139 28.3891 52.1037 28.3509 52.2452 28.2379C52.3403 28.1998 52.3881 28.0868 52.3881 27.9345C52.3881 27.7834 52.3403 27.67 52.2452 27.5941C52.1032 27.5189 51.9617 27.4807 51.6768 27.4807C50.3011 27.4426 48.5003 27.5189 48.5003 25.9289C48.5003 25.1721 49.0697 24.4149 50.6811 24.4149H53.6683V25.5125H50.9182C50.6338 25.5125 50.4918 25.5125 50.3015 25.5885C50.1596 25.6637 50.1122 25.777 50.1122 25.9289C50.1122 26.1182 50.2551 26.2694 50.4445 26.3075C50.5864 26.3457 50.7767 26.3827 51.0138 26.3827H51.8193C52.673 26.4209 53.195 26.5346 53.5263 26.7991C53.858 27.0643 54 27.367 54 27.8593V27.8593ZM47.6475 26.7991C47.3153 26.5346 46.746 26.4205 45.9405 26.3827H45.1341C44.8497 26.3827 44.7077 26.3453 44.5174 26.3075C44.3281 26.2694 44.1862 26.1182 44.1862 25.9289C44.1862 25.777 44.2804 25.6637 44.4233 25.5885C44.5652 25.5125 44.7545 25.5125 45.039 25.5125H47.789V24.4149H44.7541C43.19 24.4149 42.6207 25.1717 42.6207 25.9289C42.6207 27.5189 44.375 27.4429 45.7971 27.4807C46.0342 27.4807 46.2235 27.5189 46.3187 27.5941C46.4138 27.67 46.508 27.7834 46.508 27.9345C46.508 28.0864 46.4138 28.1998 46.3187 28.2379C46.1767 28.3513 45.9864 28.3891 45.7029 28.3891H42.81V29.4486H45.7493C47.2666 29.4486 48.1199 28.957 48.1199 27.8593C48.1208 27.367 47.9315 27.0643 47.6475 26.7991V26.7991ZM41.9103 28.4272H38.3547V27.4052H41.8161V26.3831H38.3547V25.4747H41.9103V24.4153H36.8375V29.4489H41.9103V28.4272V28.4272ZM35.2256 24.6416C34.7514 24.4523 34.1821 24.4153 33.4235 24.4153H29.9157V29.4489H31.433V27.6326H33.0922C33.6137 27.6326 33.945 27.6708 34.1821 27.8597C34.4665 28.0868 34.4192 28.5406 34.4192 28.8058V29.4489H35.9364V28.4654C35.9364 28.0108 35.8886 27.7838 35.6993 27.5563C35.5574 27.4052 35.2729 27.2159 34.9407 27.1025C35.2677 26.994 35.5464 26.8097 35.7409 26.5734C35.9353 26.3371 36.0366 26.0597 36.0316 25.777C36.032 25.2091 35.6998 24.8687 35.2256 24.6416V24.6416ZM26.6919 24.4149H21.8562L19.9599 26.0801L18.1109 24.4149H11.9946V29.4486H18.0158L19.9121 27.7834L21.7611 29.4486H24.7005V27.7834H26.5968C27.9243 27.7834 29.2044 27.4807 29.2044 26.0801C29.2044 24.6794 27.8769 24.4149 26.6919 24.4149V24.4149ZM34.0406 26.4968C33.8035 26.572 33.5664 26.572 33.282 26.572H31.4334V25.4744H33.3298C33.5668 25.4744 33.8513 25.4744 34.041 25.5503C34.2303 25.6255 34.3255 25.7767 34.3255 26.0041C34.3255 26.2316 34.2299 26.3827 34.0406 26.4968V26.4968ZM26.6919 26.7239H24.7005V25.4744H26.6919C27.2134 25.4744 27.593 25.6255 27.593 26.0801C27.593 26.4968 27.2608 26.7239 26.6919 26.7239ZM20.9078 26.951L23.231 24.9446V28.9948L20.9078 26.951ZM17.2098 28.4272H13.5118V27.4052H16.8307V26.3831H13.5118V25.4747H17.3049L18.9642 26.9514L17.2098 28.4272ZM49.8273 20.7808H47.6939L44.8497 16.9955V20.7808H41.7683L41.1517 19.645H38.0225L37.4541 20.7808H35.6998C34.9412 20.7808 34.0406 20.667 33.5191 20.2129C32.9975 19.7965 32.7126 19.2286 32.7126 18.2821C32.7126 17.563 32.8555 16.8818 33.5191 16.3139C33.9932 15.9353 34.7519 15.746 35.7949 15.746H37.2648V16.8058H35.8418C35.2734 16.8058 34.989 16.8818 34.6568 17.1089C34.4197 17.336 34.2304 17.7523 34.2304 18.2821C34.2304 18.8122 34.3733 19.1908 34.6568 19.4557C34.8939 19.645 35.3212 19.7205 35.7003 19.7205H36.3638L38.4972 15.746H40.7731L43.3329 20.5155V15.7464H45.6088L48.2637 19.2667V15.7464H49.8278V20.7808H49.8273ZM31.9549 15.7464H30.4377V20.7808H31.9549V15.7464V15.7464ZM28.7785 15.9734C28.3043 15.7464 27.735 15.7464 26.9763 15.7464H23.4681V20.7808H24.9854V18.9637H26.5973C27.1656 18.9637 27.4979 19.0019 27.6876 19.153C27.9721 19.4179 27.9721 19.8343 27.9721 20.1373V20.7808H29.4893V19.7965C29.4893 19.3423 29.4415 19.1152 29.2049 18.8881C29.1098 18.7366 28.8249 18.5473 28.4936 18.434C28.8727 18.3202 29.5371 17.9039 29.5371 17.1089C29.5371 16.5413 29.2522 16.2009 28.7785 15.9734ZM22.4246 19.7209H18.9164V18.737H22.3299V17.7149H18.9164V16.8066H22.4246V15.7467H17.3996V20.7811H22.4251V19.7209H22.4246V19.7209ZM16.2619 15.7464H13.7489L11.9473 19.153L9.95581 15.7464H7.49064V20.5159L4.93035 15.7464H2.70227L0 20.7808H1.6119L2.22807 19.645H5.35722L5.92607 20.7808H9.00789V16.844L11.1886 20.7808H12.5161L14.6973 16.844V20.7808H16.2619V15.7464V15.7464ZM40.6306 18.6233L39.5871 16.6173L38.5914 18.6233H40.6306ZM27.5457 17.8283C27.3564 17.9039 27.1183 17.9039 26.8344 17.9039H24.9854V16.8062H26.8344C27.1183 16.8062 27.4027 16.8062 27.5457 16.8822C27.7828 16.9577 27.8769 17.1092 27.8769 17.3363C27.8769 17.5634 27.7828 17.7146 27.5457 17.8283ZM2.7496 18.6233L3.79265 16.6173L4.8357 18.6233H2.7496ZM53.6687 0H0V18.0932L1.80167 14.7624H5.73677L6.25829 15.5952V14.7624H10.8569L11.8526 16.5413L12.8483 14.7624H27.4983C28.1618 14.7624 28.7785 14.838 29.2053 15.141V14.7624H33.2351V15.141C33.8986 14.838 34.7523 14.7624 35.7481 14.7624H41.5322L42.1005 15.5952V14.7624H46.3679L46.9836 15.5952V14.7624H51.1558V21.7647H46.9358L46.1303 20.7048V21.7647H40.8682L40.2989 20.667H38.9709L38.4025 21.7647H35.6525C34.5626 21.7647 33.7562 21.5754 33.2346 21.3487V21.7647H26.6919V20.1751C26.6919 19.948 26.6446 19.948 26.4548 19.948H26.2177V21.7647H13.6065V20.8941L13.1801 21.7647H10.5251L10.0983 20.9319V21.7647H5.02547L4.45662 20.667H3.12914L2.56029 21.7647H0V43H53.6687V30.1306C53.0521 30.3577 52.2457 30.471 51.4402 30.471H47.5524V30.0165C47.0782 30.2817 46.2723 30.471 45.5132 30.471H33.1864V28.8058C33.1864 28.6165 33.1395 28.6165 32.9019 28.6165H32.7126V30.471H28.6356V28.5406C27.9721 28.7677 27.1656 28.8058 26.5495 28.8058H26.0279V30.471H21.1449L19.9121 29.3734L18.632 30.471H10.6676V23.431H18.7744L19.9599 24.4905L21.1922 23.431H26.6446C27.2608 23.431 28.3043 23.4684 28.7785 23.8096V23.431H33.6142C34.0884 23.431 35.0841 23.5062 35.6998 23.8096V23.431H43.0489V23.8096C43.428 23.5443 44.1866 23.431 44.8501 23.431H48.975V23.8096C49.4014 23.5825 50.0185 23.431 50.8713 23.431H53.6692V0H53.6687V0Z" fill="#FEF8F5"/>
</svg>
